<svg width="86" height="96" viewBox="0 0 86 96" fill="none" xmlns="http://www.w3.org/2000/svg">
<path d="M9.51823 95.1823C6.90072 95.1823 4.65997 94.2503 2.79598 92.3863C0.931993 90.5223 0 88.2816 0 85.6641V19.0365C0 16.4189 0.931993 14.1782 2.79598 12.3142C4.65997 10.4502 6.90072 9.51823 9.51823 9.51823H14.2773V0H23.7956V9.51823H61.8685V0H71.3867V9.51823H76.1458C78.7633 9.51823 81.0041 10.4502 82.8681 12.3142C84.7321 14.1782 85.6641 16.4189 85.6641 19.0365V85.6641C85.6641 88.2816 84.7321 90.5223 82.8681 92.3863C81.0041 94.2503 78.7633 95.1823 76.1458 95.1823H9.51823ZM9.51823 85.6641H76.1458V38.0729H9.51823V85.6641ZM9.51823 28.5547H76.1458V19.0365H9.51823V28.5547ZM42.832 57.1094C41.4836 57.1094 40.3533 56.6533 39.4412 55.7411C38.529 54.829 38.0729 53.6987 38.0729 52.3503C38.0729 51.0018 38.529 49.8716 39.4412 48.9594C40.3533 48.0472 41.4836 47.5911 42.832 47.5911C44.1804 47.5911 45.3107 48.0472 46.2229 48.9594C47.1351 49.8716 47.5911 51.0018 47.5911 52.3503C47.5911 53.6987 47.1351 54.829 46.2229 55.7411C45.3107 56.6533 44.1804 57.1094 42.832 57.1094ZM23.7956 57.1094C22.4472 57.1094 21.3169 56.6533 20.4047 55.7411C19.4925 54.829 19.0365 53.6987 19.0365 52.3503C19.0365 51.0018 19.4925 49.8716 20.4047 48.9594C21.3169 48.0472 22.4472 47.5911 23.7956 47.5911C25.144 47.5911 26.2743 48.0472 27.1864 48.9594C28.0986 49.8716 28.5547 51.0018 28.5547 52.3503C28.5547 53.6987 28.0986 54.829 27.1864 55.7411C26.2743 56.6533 25.144 57.1094 23.7956 57.1094ZM61.8685 57.1094C60.5201 57.1094 59.3898 56.6533 58.4776 55.7411C57.5655 54.829 57.1094 53.6987 57.1094 52.3503C57.1094 51.0018 57.5655 49.8716 58.4776 48.9594C59.3898 48.0472 60.5201 47.5911 61.8685 47.5911C63.2169 47.5911 64.3472 48.0472 65.2594 48.9594C66.1715 49.8716 66.6276 51.0018 66.6276 52.3503C66.6276 53.6987 66.1715 54.829 65.2594 55.7411C64.3472 56.6533 63.2169 57.1094 61.8685 57.1094ZM42.832 76.1458C41.4836 76.1458 40.3533 75.6898 39.4412 74.7776C38.529 73.8654 38.0729 72.7351 38.0729 71.3867C38.0729 70.0383 38.529 68.908 39.4412 67.9958C40.3533 67.0837 41.4836 66.6276 42.832 66.6276C44.1804 66.6276 45.3107 67.0837 46.2229 67.9958C47.1351 68.908 47.5911 70.0383 47.5911 71.3867C47.5911 72.7351 47.1351 73.8654 46.2229 74.7776C45.3107 75.6898 44.1804 76.1458 42.832 76.1458ZM23.7956 76.1458C22.4472 76.1458 21.3169 75.6898 20.4047 74.7776C19.4925 73.8654 19.0365 72.7351 19.0365 71.3867C19.0365 70.0383 19.4925 68.908 20.4047 67.9958C21.3169 67.0837 22.4472 66.6276 23.7956 66.6276C25.144 66.6276 26.2743 67.0837 27.1864 67.9958C28.0986 68.908 28.5547 70.0383 28.5547 71.3867C28.5547 72.7351 28.0986 73.8654 27.1864 74.7776C26.2743 75.6898 25.144 76.1458 23.7956 76.1458ZM61.8685 76.1458C60.5201 76.1458 59.3898 75.6898 58.4776 74.7776C57.5655 73.8654 57.1094 72.7351 57.1094 71.3867C57.1094 70.0383 57.5655 68.908 58.4776 67.9958C59.3898 67.0837 60.5201 66.6276 61.8685 66.6276C63.2169 66.6276 64.3472 67.0837 65.2594 67.9958C66.1715 68.908 66.6276 70.0383 66.6276 71.3867C66.6276 72.7351 66.1715 73.8654 65.2594 74.7776C64.3472 75.6898 63.2169 76.1458 61.8685 76.1458Z" fill="white"/>
</svg>
