<svg width="25" height="17" viewBox="0 0 25 17" fill="none" xmlns="http://www.w3.org/2000/svg">
<path d="M12.4095 12.6923C13.6798 12.6923 14.7576 12.2477 15.643 11.3585C16.5285 10.4693 16.9712 9.38962 16.9712 8.11935C16.9712 6.84908 16.5266 5.77124 15.6374 4.88582C14.7482 4.0004 13.6685 3.55769 12.3982 3.55769C11.1279 3.55769 10.0501 4.00229 9.16467 4.89148C8.27925 5.78066 7.83654 6.86039 7.83654 8.13066C7.83654 9.40093 8.28113 10.4788 9.17032 11.3642C10.0595 12.2496 11.1392 12.6923 12.4095 12.6923ZM12.4039 11.5C11.4664 11.5 10.6695 11.1719 10.0132 10.5156C9.35698 9.85938 9.02885 9.06251 9.02885 8.12501C9.02885 7.18751 9.35698 6.39063 10.0132 5.73438C10.6695 5.07813 11.4664 4.75001 12.4039 4.75001C13.3414 4.75001 14.1382 5.07813 14.7945 5.73438C15.4507 6.39063 15.7789 7.18751 15.7789 8.12501C15.7789 9.06251 15.4507 9.85938 14.7945 10.5156C14.1382 11.1719 13.3414 11.5 12.4039 11.5ZM12.4073 16.25C9.69987 16.25 7.23238 15.5132 5.00481 14.0397C2.77724 12.5661 1.10897 10.5946 0 8.12501C1.10897 5.65545 2.7761 3.6839 5.00138 2.21034C7.22665 0.73678 9.693 0 12.4004 0C15.1078 0 17.5753 0.73678 19.8029 2.21034C22.0305 3.6839 23.6987 5.65545 24.8077 8.12501C23.6987 10.5946 22.0316 12.5661 19.8063 14.0397C17.5811 15.5132 15.1147 16.25 12.4073 16.25ZM12.4039 15C14.758 15 16.9195 14.3802 18.8882 13.1406C20.857 11.901 22.3622 10.2292 23.4039 8.12501C22.3622 6.02084 20.857 4.34897 18.8882 3.10938C16.9195 1.8698 14.758 1.25001 12.4039 1.25001C10.0497 1.25001 7.88823 1.8698 5.91948 3.10938C3.95073 4.34897 2.44552 6.02084 1.40385 8.12501C2.44552 10.2292 3.95073 11.901 5.91948 13.1406C7.88823 14.3802 10.0497 15 12.4039 15Z" fill="#FF7850"/>
</svg>
