<svg width="23" height="23" viewBox="0 0 23 23" fill="none" xmlns="http://www.w3.org/2000/svg">
<path d="M21.8942 13.9423L13.9423 21.8942C13.7404 22.0962 13.5132 22.2476 13.2608 22.3486C13.0084 22.4495 12.756 22.5 12.5036 22.5C12.2512 22.5 11.9974 22.4495 11.7421 22.3486C11.4868 22.2476 11.2571 22.0962 11.0529 21.8942L0.598558 11.464C0.401443 11.2829 0.252404 11.0671 0.151443 10.8167C0.0504808 10.5662 0 10.3028 0 10.0265V2.04327C0 1.48137 0.196715 1.00035 0.590145 0.600212C0.983575 0.200071 1.46795 0 2.04327 0H10.0265C10.2968 0 10.5587 0.0546875 10.8122 0.164062C11.0656 0.273438 11.2853 0.420673 11.4712 0.60577L21.8942 11.0361C22.1024 11.2403 22.2542 11.47 22.3497 11.7253C22.4451 11.9805 22.4928 12.2373 22.4928 12.4957C22.4928 12.754 22.4451 13.008 22.3497 13.2577C22.2542 13.5075 22.1024 13.7357 21.8942 13.9423ZM13.0505 21.0096L21.0024 13.0577C21.1627 12.8974 21.2428 12.7091 21.2428 12.4928C21.2428 12.2765 21.1627 12.0882 21.0024 11.9279L10.3317 1.27405H2.04327C1.81891 1.27405 1.63061 1.34616 1.47837 1.49039C1.32613 1.63462 1.25001 1.81891 1.25001 2.04327V10.0192C1.25001 10.1154 1.26603 10.2115 1.29808 10.3077C1.33014 10.4039 1.38622 10.492 1.46635 10.5721L11.9207 21.0096C12.0809 21.1699 12.2692 21.25 12.4856 21.25C12.7019 21.25 12.8902 21.1699 13.0505 21.0096ZM4.43722 5.69713C4.78838 5.69713 5.08615 5.5756 5.33054 5.33254C5.57493 5.08949 5.69713 4.79435 5.69713 4.44712C5.69713 4.09322 5.5756 3.79241 5.33254 3.54468C5.08949 3.29695 4.79435 3.17308 4.44712 3.17308C4.09322 3.17308 3.79241 3.29598 3.54468 3.54179C3.29695 3.7876 3.17308 4.08607 3.17308 4.43723C3.17308 4.78838 3.29598 5.08615 3.54179 5.33054C3.78759 5.57493 4.08607 5.69713 4.43722 5.69713Z" fill="#FF7850"/>
</svg>
