<svg width="23" height="29" viewBox="0 0 23 29" fill="none" xmlns="http://www.w3.org/2000/svg">
<path d="M9.67871 18.6312L17.7433 10.7906L16.5827 9.66229L9.67871 16.3745L6.20014 12.9925L5.03956 14.1209L9.67871 18.6312ZM11.3867 28.2843C8.11877 27.3415 5.404 25.4169 3.2424 22.5104C1.0808 19.6039 0 16.3299 0 12.6884V4.1362L11.3867 0L22.7734 4.1362V12.6884C22.7734 16.3299 21.6926 19.6039 19.531 22.5104C17.3694 25.4169 14.6547 27.3415 11.3867 28.2843ZM11.3867 26.6055C14.2063 25.7357 16.5378 23.9961 18.3814 21.3866C20.225 18.7771 21.1468 15.8778 21.1468 12.6884V5.21588L11.3867 1.68795L1.62668 5.21588V12.6884C1.62668 15.8778 2.54846 18.7771 4.39203 21.3866C6.23559 23.9961 8.56715 25.7357 11.3867 26.6055Z" fill="#FF7850"/>
</svg>
