<svg width="20" height="28" viewBox="0 0 20 28" fill="none" xmlns="http://www.w3.org/2000/svg">
<path d="M9.21126 17.271C9.18557 17.2532 6.21375 12.257 6.20387 12.1928C5.58936 10.8501 5.09339 9.47687 6.12681 8.86729L1.83803 1.63534C0.726563 2.46622 -2.41716 6.97532 3.4672 17.1939C9.66573 27.9628 15.5649 27.5152 16.7475 26.7861L12.5684 19.7271C11.5804 20.308 10.7485 19.3507 9.21126 17.271ZM19.6156 24.0455L19.6166 24.0396C19.6166 24.0396 16.3533 18.5405 16.3513 18.5385C16.0925 18.1028 15.5362 17.9655 15.1025 18.2184L13.1029 19.401L17.2938 26.4808C17.2938 26.4808 19.2935 25.3042 19.2925 25.3002H19.2965C19.7559 25.0275 19.8616 24.4644 19.6156 24.0455ZM8.67281 7.36755V7.3636C9.13222 7.0919 9.23991 6.52876 8.99391 6.11381L8.99588 6.10788C8.99588 6.10788 5.63876 0.447798 5.63678 0.44681C5.37892 0.0091386 4.82071 -0.126213 4.38897 0.126707L2.38932 1.30931L6.67316 8.54521C6.67316 8.54521 8.67183 7.37051 8.67281 7.36755Z" fill="white"/>
</svg>
