<svg width="23" height="20" viewBox="0 0 23 20" fill="none" xmlns="http://www.w3.org/2000/svg">
<path d="M10.9615 20V18.75H19.2308C19.4391 18.75 19.6194 18.6859 19.7716 18.5577C19.9239 18.4295 20 18.2612 20 18.0529V9.44232C20 7.10097 19.139 5.14544 17.4171 3.57573C15.6951 2.00602 13.6394 1.22116 11.25 1.22116C8.86058 1.22116 6.80489 2.00602 5.08294 3.57573C3.36099 5.14544 2.50001 7.10097 2.50001 9.44232V16.5385H1.875C1.36378 16.5385 0.923479 16.3658 0.554088 16.0204C0.184696 15.6751 0 15.2468 0 14.7356V12.3798C0 12.0064 0.121394 11.6751 0.364182 11.3858C0.606971 11.0966 0.902243 10.8614 1.25 10.6803L1.27164 9.14424C1.3101 7.83975 1.60537 6.63141 2.15745 5.51923C2.70954 4.40705 3.4363 3.4391 4.33774 2.61539C5.23919 1.79167 6.28646 1.14984 7.47957 0.689903C8.67268 0.229968 9.92949 0 11.25 0C12.5705 0 13.8261 0.229968 15.0168 0.689903C16.2075 1.14984 17.2548 1.79047 18.1587 2.61178C19.0625 3.43309 19.7893 4.39984 20.339 5.51202C20.8886 6.6242 21.1851 7.83254 21.2284 9.13702L21.25 10.6418C21.5817 10.7973 21.873 11.0064 22.1238 11.2692C22.3746 11.5321 22.5 11.8478 22.5 12.2164V14.9231C22.5 15.2917 22.3746 15.6074 22.1238 15.8702C21.873 16.133 21.5817 16.3422 21.25 16.4976V18.0529C21.25 18.5962 21.0533 19.0565 20.6599 19.4339C20.2664 19.8113 19.7901 20 19.2308 20H10.9615ZM7.98077 11.9231C7.72276 11.9231 7.498 11.8353 7.30649 11.6599C7.11499 11.4844 7.01923 11.2676 7.01923 11.0096C7.01923 10.7516 7.11499 10.5309 7.30649 10.3474C7.498 10.1639 7.72276 10.0721 7.98077 10.0721C8.23879 10.0721 8.46355 10.1639 8.65505 10.3474C8.84656 10.5309 8.94231 10.7516 8.94231 11.0096C8.94231 11.2676 8.84656 11.4844 8.65505 11.6599C8.46355 11.8353 8.23879 11.9231 7.98077 11.9231ZM14.5192 11.9231C14.2612 11.9231 14.0365 11.8353 13.845 11.6599C13.6535 11.4844 13.5577 11.2676 13.5577 11.0096C13.5577 10.7516 13.6535 10.5309 13.845 10.3474C14.0365 10.1639 14.2612 10.0721 14.5192 10.0721C14.7773 10.0721 15.002 10.1639 15.1935 10.3474C15.385 10.5309 15.4808 10.7516 15.4808 11.0096C15.4808 11.2676 15.385 11.4844 15.1935 11.6599C15.002 11.8353 14.7773 11.9231 14.5192 11.9231ZM4.64664 9.93751C4.53285 8.06571 5.13542 6.47036 6.45433 5.15145C7.77324 3.83254 9.39263 3.17308 11.3125 3.17308C12.9263 3.17308 14.3562 3.65746 15.6022 4.62621C16.8482 5.59496 17.609 6.8678 17.8846 8.44472C16.2292 8.42389 14.6927 8.00161 13.2752 7.17789C11.8578 6.35417 10.77 5.20834 10.012 3.74039C9.71074 5.1827 9.08374 6.44672 8.13101 7.53246C7.17829 8.6182 6.01683 9.41988 4.64664 9.93751Z" fill="#FF7850"/>
</svg>
