<svg width="23" height="23" viewBox="0 0 23 23" fill="none" xmlns="http://www.w3.org/2000/svg">
<path fill-rule="evenodd" clip-rule="evenodd" d="M10.1783 0.0686301C4.86123 0.721674 0.682409 4.96027 0.132139 10.2585C0.0506038 11.0438 0.0999909 12.5305 0.232609 13.281C0.442519 14.4693 0.789869 15.5147 1.32976 16.583L1.60102 17.1199L0.792719 20.0541C0.348139 21.6679 -0.00848819 22.9935 0.00015381 22.9999C0.00884381 23.0062 1.36287 22.6578 3.00912 22.2255C5.4057 21.5963 6.02635 21.4487 6.123 21.4854C6.18938 21.5105 6.50439 21.6486 6.82302 21.7922C7.85788 22.2585 8.94465 22.5678 10.0882 22.7215C10.883 22.8283 12.2777 22.8277 13.0508 22.7202C15.5883 22.3672 17.8554 21.252 19.6422 19.4779C20.5766 18.5502 21.1979 17.7016 21.7895 16.5454C22.3222 15.5041 22.6981 14.369 22.9081 13.1672C23.0308 12.4647 23.0306 10.4006 22.9078 9.66449C22.7001 8.42082 22.3797 7.4272 21.8321 6.32969C20.2739 3.20646 17.3963 0.98006 13.9557 0.235658C12.8832 0.00361362 11.2837 -0.0671128 10.1783 0.0686301ZM13.1956 2.05454C14.5805 2.30908 15.7289 2.7689 16.8647 3.52362C18.8038 4.81215 20.2312 6.81302 20.7954 9.03347C21.2098 10.6641 21.1772 12.5161 20.7066 14.0841C19.9457 16.6193 18.1322 18.7534 15.7589 19.9061C14.3792 20.5762 13.1025 20.8684 11.5542 20.8684C9.77957 20.8684 8.20649 20.4404 6.60099 19.5208L6.33064 19.366L4.55389 19.83C3.57667 20.0851 2.76972 20.2866 2.76064 20.2775C2.75156 20.2686 2.95206 19.5086 3.20619 18.5887C3.46027 17.6688 3.67004 16.8824 3.67231 16.8411C3.67457 16.7997 3.54963 16.5608 3.39466 16.31C1.11782 12.627 1.71457 7.77004 4.8213 4.69828C6.3667 3.17028 8.32318 2.23126 10.5162 1.96495C11.1086 1.89303 12.5855 1.9424 13.1956 2.05454ZM7.04736 6.24121C6.76817 6.37859 6.25803 6.97741 6.04474 7.41813C5.62579 8.28383 5.63434 9.3751 6.06796 10.3855C6.60084 11.6272 7.99509 13.3903 9.37147 14.5629C10.3363 15.3847 11.1424 15.8663 12.3266 16.3282C13.5364 16.8001 13.7685 16.8545 14.5715 16.8542C15.2031 16.8539 15.3034 16.842 15.597 16.732C16.0799 16.5512 16.4403 16.3234 16.7993 15.9721C17.0779 15.6996 17.134 15.6143 17.2252 15.3244C17.3389 14.9629 17.4039 14.3812 17.3531 14.1799C17.3265 14.0746 17.1901 13.9891 16.5042 13.6478C15.2475 13.0225 14.741 12.8073 14.5258 12.8073C14.3494 12.8073 14.3193 12.8288 14.1061 13.1072C13.6186 13.7436 13.1713 14.2364 13.0548 14.2655C12.9152 14.3003 12.641 14.2005 12.0075 13.8843C10.9819 13.3724 10.1452 12.6878 9.42577 11.7721C9.03425 11.2737 8.68168 10.7058 8.68168 10.5735C8.68168 10.5169 8.86321 10.2352 9.08509 9.94758C9.51987 9.38383 9.64727 9.17348 9.64727 9.01864C9.64727 8.96432 9.55297 8.69874 9.43767 8.4285C9.32247 8.15821 9.09006 7.60243 8.92124 7.19338C8.71195 6.6864 8.56505 6.39999 8.45971 6.29371L8.30512 6.13776L7.78132 6.13781C7.34224 6.13781 7.22352 6.15456 7.04736 6.24121Z" fill="#C0C2D7"/>
</svg>
