<svg width="147" height="15" viewBox="0 0 147 15" fill="none" xmlns="http://www.w3.org/2000/svg">
<g clip-path="url(#clip0_502_1057)">
<path d="M114.21 14.8902C115.078 14.8902 115.782 14.185 115.782 13.315C115.782 12.445 115.078 11.7397 114.21 11.7397C113.341 11.7397 112.637 12.445 112.637 13.315C112.637 14.185 113.341 14.8902 114.21 14.8902Z" fill="white"/>
<path fill-rule="evenodd" clip-rule="evenodd" d="M87.8287 9.98629V1.81307C87.8287 0.832244 88.6297 0.0297852 89.6089 0.0297852C90.1135 0.0297852 90.5589 0.237823 90.8853 0.564754C91.2117 0.891684 91.4191 1.33751 91.4191 1.84278V6.59807V8.76772V9.36212C91.5082 11.4128 92.6655 12.3045 94.0602 12.3045C95.4548 12.3045 96.5824 11.4426 96.7007 9.45132V8.67858V6.59807V1.84278C96.7007 0.86197 97.5017 0.0595049 98.481 0.0595049C98.9855 0.0595049 99.4309 0.267549 99.7573 0.594479C100.084 0.92141 100.291 1.36722 100.291 1.87249V10.0457V10.2835C100.291 12.6908 97.5016 14.9496 94.0602 14.9496C90.7071 14.9496 87.9477 12.78 87.8586 10.4321L87.8287 9.98629ZM85.01 0.326989H75.218C74.5652 0.326989 74.0312 0.86197 74.0312 1.51582C74.0312 2.16969 74.5652 2.70466 75.218 2.70466H78.3337V13.0772C78.3337 14.058 79.1348 14.8605 80.114 14.8605C81.0932 14.8605 81.8943 14.058 81.8943 13.0772V2.70466H85.01C85.6628 2.70466 86.1967 2.16969 86.1967 1.51582C86.1967 0.86197 85.6628 0.326989 85.01 0.326989ZM112.605 0.326989H102.813C102.16 0.326989 101.627 0.86197 101.627 1.51582C101.627 2.16969 102.16 2.70466 102.813 2.70466H105.929V13.0772C105.929 14.058 106.73 14.8605 107.709 14.8605C108.688 14.8605 109.489 14.058 109.489 13.0772V2.70466H112.605C113.258 2.70466 113.792 2.16969 113.792 1.51582C113.792 0.86197 113.258 0.326989 112.605 0.326989ZM131.091 3.8638C131.091 5.49842 129.845 6.86555 128.154 7.28167C131.299 7.81664 131.12 10.6104 131.091 10.6104V13.0772C131.091 14.058 130.29 14.8605 129.311 14.8605C128.332 14.8605 127.531 14.058 127.531 13.0772V10.6104C127.531 10.6104 127.738 8.61909 125.097 8.61909H122.842V13.0772C122.842 14.058 122.041 14.8605 121.062 14.8605C120.083 14.8605 119.282 14.058 119.282 13.0772V2.11026C119.282 1.12945 120.083 0.326989 121.062 0.326989H127.144C127.471 0.326989 127.827 0.356709 128.154 0.445874C129.845 0.861964 131.091 2.22912 131.091 3.8638ZM122.842 6.56836H124.622H125.661C126.759 6.56836 127.708 5.79562 127.827 4.69597V4.48791C127.827 4.33934 127.827 4.22042 127.797 4.07179C127.59 3.06128 126.67 2.37775 125.661 2.37775H123.525H122.842V6.56836ZM133.881 1.81307V9.98629L133.91 10.4321C134 12.78 136.759 14.9496 140.112 14.9496C143.554 14.9496 146.343 12.6908 146.343 10.2835V10.0457V1.87249C146.343 1.36722 146.136 0.92141 145.809 0.594479C145.483 0.267549 145.037 0.0595049 144.533 0.0595049C143.554 0.0595049 142.753 0.86197 142.753 1.84278V6.59807V8.67858V9.45132C142.634 11.4426 141.506 12.3045 140.112 12.3045C138.717 12.3045 137.56 11.4128 137.471 9.36212V8.76772V6.59807V1.84278C137.471 1.33751 137.264 0.891684 136.937 0.564754C136.611 0.237823 136.165 0.0297852 135.661 0.0297852C134.682 0.0297852 133.881 0.832244 133.881 1.81307Z" fill="white" fill-opacity="0.27"/>
<path fill-rule="evenodd" clip-rule="evenodd" d="M28.4856 2.76407C27.6548 1.5752 26.3789 0.683587 24.8952 0.32693C24.2424 0.118886 23.3226 0 22.3434 0C21.3643 0 20.4741 0.118886 19.7916 0.32693C18.308 0.683587 17.0617 1.5752 16.2012 2.76407C15.4891 3.7448 15.1034 4.96337 15.1034 6.30085V8.58936C15.1034 9.89706 15.5188 11.1156 16.2012 12.1261C17.0024 13.2852 18.1893 14.1174 19.5839 14.5038C20.2664 14.7416 21.2455 14.9199 22.3434 14.9199C23.4413 14.9199 24.4205 14.7713 25.1029 14.5038C26.4975 14.1174 27.6844 13.2555 28.4856 12.1261C29.1977 11.1156 29.6131 9.92678 29.6131 8.58936V6.30085C29.6131 4.96337 29.1977 3.7448 28.4856 2.76407ZM25.7557 6.03337V8.79741C25.7557 9.68901 25.4293 10.5212 24.9249 11.1751L24.7469 11.3534C23.471 12.7502 21.2455 12.7502 19.9696 11.3534L19.7916 11.1751C19.2575 10.5212 18.9608 9.68901 18.9608 8.79741V6.03337C18.9608 5.14171 19.2872 4.30954 19.7916 3.65566C19.7916 3.65566 19.7916 3.62594 19.8213 3.62594C21.1269 2.02104 23.5896 2.02104 24.8952 3.62594C24.8952 3.62594 24.8952 3.65566 24.9249 3.65566C25.4293 4.30954 25.7557 5.14171 25.7557 6.03337ZM0 1.99126V13.196C0 14.1174 0.741819 14.8604 1.66166 14.8604H7.24008C10.6227 14.8604 13.3822 12.1261 13.3822 8.70821V6.4197C13.3822 3.03149 10.6524 0.267459 7.24008 0.267459H1.66166C0.741819 0.326905 0 1.06993 0 1.99126ZM5.69709 12.78H3.56071V2.40738H5.69709C7.80381 2.40738 9.49518 4.10142 9.49518 6.21165V8.97569C9.49518 11.0859 7.80381 12.78 5.69709 12.78ZM55.1612 14.8605C54.182 14.8605 53.3809 14.058 53.3809 13.0772V2.11024C53.3809 1.12942 54.182 0.326962 55.1612 0.326962C56.1404 0.326962 56.9414 1.12942 56.9414 2.11024V13.0772C56.9414 14.0877 56.1404 14.8605 55.1612 14.8605ZM67.5345 7.34107L71.6887 12.4233C72.1933 13.0772 72.1634 13.9985 71.5405 14.5336C70.9176 15.0685 69.9676 14.9793 69.4338 14.3255L65.1607 9.09461L64.1522 7.90576V13.0772C64.1522 14.058 63.3511 14.8605 62.3719 14.8605C61.3927 14.8605 60.5917 14.058 60.5917 13.0772V2.11024C60.5917 1.12942 61.3927 0.326962 62.3719 0.326962C63.3511 0.326962 64.1522 1.12942 64.1522 2.11024V6.80611L64.8941 5.88474L68.8402 0.891656C69.3447 0.237796 70.294 0.148637 70.9468 0.653892C71.5996 1.15915 71.6887 2.11018 71.1841 2.76407L67.5345 7.34107ZM49.8198 2.34795V2.46687V2.64521V13.5231C49.8198 14.2661 49.2268 14.8605 48.4849 14.8605C47.743 14.8605 47.1494 14.2661 47.1494 13.5231V4.42846V3.44766L46.823 4.25012L46.7937 4.30954L43.055 12.8395C43.055 12.8692 43.0251 12.9286 42.9952 12.9583C42.6987 13.6716 41.927 14.1769 41.0667 14.1174C40.4139 14.0877 39.8203 13.731 39.4939 13.2258C39.4048 13.1069 39.3157 12.988 39.2566 12.8395L35.5179 4.30954L35.488 4.25012L35.1616 3.44766V4.42846V13.5231C35.1616 14.2661 34.5686 14.8605 33.8267 14.8605C33.0848 14.8605 32.4912 14.2661 32.4912 13.5231V2.64521C32.4912 2.59609 32.5001 2.55601 32.5084 2.52C32.5147 2.4906 32.5211 2.46388 32.5211 2.43715C32.4912 2.40744 32.4912 2.37773 32.4912 2.34795C32.432 1.30775 33.4704 0.416121 34.8059 0.326962H34.8352H35.0731H35.1915H35.2806C35.7552 0.356682 36.1707 0.505281 36.527 0.713326C36.9425 0.951096 37.2091 1.24831 37.4171 1.63468V1.6644C37.4171 1.67926 37.4241 1.69412 37.4318 1.70898C37.4394 1.72384 37.4464 1.7387 37.4464 1.75356L41.0667 10.2835L41.1558 10.4618L41.2449 10.2835L44.8646 1.75356C44.8646 1.72384 44.8646 1.69412 44.8945 1.6644V1.63468C45.1019 1.24831 45.3691 0.921377 45.7846 0.713326C46.1409 0.505281 46.5564 0.356682 47.031 0.326962H47.1201H47.2385H47.4758H47.5057C48.8406 0.416121 49.8796 1.30775 49.8198 2.34795Z" fill="white"/>
</g>
<defs>
<clipPath id="clip0_502_1057">
<rect width="147" height="15" fill="white"/>
</clipPath>
</defs>
</svg>
