<svg width="408" height="51" viewBox="0 0 408 51" fill="none" xmlns="http://www.w3.org/2000/svg">
<path opacity="0.26" fill-rule="evenodd" clip-rule="evenodd" d="M151.051 16.3064C146.149 9.29289 138.622 4.03279 129.869 1.92873C126.018 0.701363 120.592 0 114.815 0C109.038 0 103.787 0.701363 99.7604 1.92873C91.0078 4.03279 83.6556 9.29289 78.5791 16.3064C74.3778 22.0926 72.1021 29.2815 72.1021 37.1717V50.6727C72.1021 58.3875 74.5529 65.5764 78.5791 71.5379C83.3055 78.3761 90.3076 83.2855 98.535 85.5649C102.561 86.9676 108.338 88.0197 114.815 88.0197C121.292 88.0197 127.068 87.143 131.095 85.5649C139.322 83.2855 146.324 78.2007 151.051 71.5379C155.252 65.5764 157.703 58.5629 157.703 50.6727V37.1717C157.703 29.2815 155.252 22.0926 151.051 16.3064ZM134.946 35.5936V51.9001C134.946 57.1602 133.02 62.0696 130.044 65.9271L128.994 66.9791C121.467 75.22 108.338 75.22 100.811 66.9791L99.7604 65.9271C96.6094 62.0696 94.8589 57.1602 94.8589 51.9001V35.5936C94.8589 30.3334 96.7845 25.424 99.7604 21.5665C99.7604 21.5665 99.7603 21.3913 99.9354 21.3913C107.638 11.923 122.167 11.923 129.869 21.3913C129.869 21.3913 129.869 21.5665 130.044 21.5665C133.02 25.424 134.946 30.3334 134.946 35.5936ZM-17 11.7475V77.8499C-17 83.2854 -12.6237 87.6688 -7.19708 87.6688H25.7127C45.6686 87.6688 61.9484 71.5377 61.9484 51.3738V37.8728C61.9484 17.8843 45.8436 1.57787 25.7127 1.57787H-7.19708C-12.6237 1.92855 -17 6.31203 -17 11.7475ZM16.61 75.3952H4.00624V14.2022H16.61C29.0387 14.2022 39.0166 24.1965 39.0166 36.6455V52.9519C39.0166 65.4009 29.0387 75.3952 16.61 75.3952ZM308.422 87.6691C302.646 87.6691 297.919 82.935 297.919 77.1489V12.4492C297.919 6.66302 302.646 1.92889 308.422 1.92889C314.199 1.92889 318.925 6.66302 318.925 12.4492V77.1489C318.925 83.1104 314.199 87.6691 308.422 87.6691ZM381.42 43.3087L405.928 73.2914C408.904 77.1488 408.728 82.5843 405.052 85.7404C401.376 88.8965 395.775 88.3705 392.624 84.5131L367.416 53.6536L361.464 46.6401V77.1489C361.464 82.935 356.738 87.6691 350.961 87.6691C345.185 87.6691 340.458 82.935 340.458 77.1489V12.4492C340.458 6.66302 345.185 1.92889 350.961 1.92889C356.738 1.92889 361.464 6.66302 361.464 12.4492V40.1525L365.841 34.7171L389.123 5.2603C392.098 1.40286 397.7 0.876871 401.551 3.85762C405.402 6.83836 405.928 12.4491 402.952 16.3066L381.42 43.3087ZM276.913 13.8518V14.5532V15.6052V79.7789C276.913 84.1624 273.412 87.6691 269.035 87.6691C264.659 87.6691 261.158 84.1624 261.158 79.7789V26.1255V20.3394L259.233 25.0735L259.058 25.4242L237.001 75.7462C237.001 75.9215 236.826 76.2722 236.651 76.4475C234.9 80.6556 230.349 83.6364 225.273 83.2857C221.421 83.1104 217.92 81.0063 215.995 78.0256C215.47 77.3243 214.944 76.6227 214.594 75.7462L192.538 25.4242L192.363 25.0735L190.437 20.3394V26.1255V79.7789C190.437 84.1624 186.936 87.6691 182.56 87.6691C178.184 87.6691 174.683 84.1624 174.683 79.7789V15.6052C174.683 15.3157 174.736 15.0792 174.783 14.8667C174.822 14.6931 174.858 14.5355 174.858 14.3779C174.683 14.2026 174.683 14.0272 174.683 13.8518C174.332 7.71502 180.459 2.4549 188.337 1.92889H188.512H189.912H190.612H191.137C193.938 2.10423 196.389 2.98089 198.49 4.20826C200.94 5.61096 202.516 7.36436 203.741 9.64375V9.8191C203.741 9.90676 203.785 9.99443 203.829 10.0821C203.872 10.1698 203.916 10.2574 203.916 10.3451L225.273 60.6671L225.798 61.7192L226.323 60.6671L247.679 10.3451C247.679 10.1698 247.679 9.99444 247.854 9.8191V9.64375C249.08 7.36436 250.655 5.43563 253.106 4.20826C255.206 2.98089 257.657 2.10423 260.458 1.92889H260.983H261.683H263.084H263.259C271.136 2.4549 277.263 7.71502 276.913 13.8518Z" fill="#F4683F"/>
</svg>
