<svg width="598" height="66" viewBox="0 0 598 66" fill="none" xmlns="http://www.w3.org/2000/svg">
<path opacity="0.26" fill-rule="evenodd" clip-rule="evenodd" d="M236.457 22.9441C229.56 13.0756 218.969 5.67437 206.654 2.71383C201.235 0.986859 193.599 0 185.471 0C177.343 0 169.954 0.986859 164.289 2.71383C151.973 5.67437 141.628 13.0756 134.485 22.9441C128.574 31.0855 125.372 41.2007 125.372 52.3027V71.2994C125.372 82.1547 128.82 92.2698 134.485 100.658C141.136 110.28 150.988 117.188 162.565 120.395C168.23 122.369 176.358 123.849 185.471 123.849C194.585 123.849 202.713 122.615 208.378 120.395C219.954 117.188 229.807 110.033 236.457 100.658C242.368 92.2698 245.817 82.4014 245.817 71.2994V52.3027C245.817 41.2007 242.368 31.0855 236.457 22.9441ZM213.797 50.0823V73.0264C213.797 80.4277 211.087 87.3356 206.9 92.7633L205.422 94.2436C194.831 105.839 176.358 105.839 165.766 94.2436L164.289 92.7633C159.855 87.3356 157.392 80.4277 157.392 73.0264V50.0823C157.392 42.6809 160.101 35.773 164.289 30.3454C164.289 30.3454 164.289 30.0987 164.535 30.0987C175.373 16.7764 195.816 16.7764 206.654 30.0987C206.654 30.0987 206.654 30.3454 206.9 30.3454C211.087 35.773 213.797 42.6809 213.797 50.0823ZM0 16.5294V109.539C0 117.187 6.15773 123.355 13.7933 123.355H60.0992C88.1784 123.355 111.085 100.658 111.085 72.286V53.2893C111.085 25.1643 88.4247 2.22016 60.0992 2.22016H13.7933C6.15773 2.71358 0 8.88139 0 16.5294ZM47.2912 106.085H29.557V19.9834H47.2912C64.7791 19.9834 78.8187 34.0459 78.8187 51.5623V74.5065C78.8187 92.0229 64.7791 106.085 47.2912 106.085ZM457.888 123.356C449.76 123.356 443.11 116.694 443.11 108.553V17.5167C443.11 9.37525 449.76 2.71406 457.888 2.71406C466.016 2.71406 472.667 9.37525 472.667 17.5167V108.553C472.667 116.941 466.016 123.356 457.888 123.356ZM560.601 60.9378L595.084 103.125C599.271 108.553 599.025 116.201 593.852 120.642C588.68 125.083 580.798 124.343 576.365 118.915L540.896 75.4938L532.522 65.6253V108.553C532.522 116.694 525.871 123.356 517.743 123.356C509.615 123.356 502.965 116.694 502.965 108.553V17.5167C502.965 9.37525 509.615 2.71406 517.743 2.71406C525.871 2.71406 532.522 9.37525 532.522 17.5167V56.497L538.679 48.8489L571.438 7.40155C575.626 1.97391 583.507 1.23381 588.926 5.42789C594.345 9.62198 595.084 17.5167 590.897 22.9443L560.601 60.9378ZM413.553 19.4904V20.4772V21.9575V112.254C413.553 118.421 408.626 123.356 402.469 123.356C396.311 123.356 391.385 118.421 391.385 112.254V36.7601V28.6187L388.676 35.2798L388.429 35.7733L357.394 106.579C357.394 106.826 357.148 107.319 356.902 107.566C354.439 113.487 348.035 117.681 340.892 117.188C335.473 116.941 330.547 113.981 327.837 109.787C327.099 108.8 326.359 107.813 325.867 106.579L294.832 35.7733L294.586 35.2798L291.876 28.6187V36.7601V112.254C291.876 118.421 286.95 123.356 280.792 123.356C274.635 123.356 269.709 118.421 269.709 112.254V21.9575C269.709 21.55 269.783 21.2174 269.85 20.9183C269.905 20.6741 269.955 20.4523 269.955 20.2305C269.709 19.9838 269.709 19.7371 269.709 19.4904C269.216 10.8555 277.837 3.45419 288.921 2.71406H289.167H291.137H292.123H292.862C296.802 2.96077 300.251 4.19429 303.207 5.92127C306.655 7.89496 308.872 10.3621 310.596 13.5693V13.816C310.596 13.9394 310.657 14.0627 310.719 14.1861C310.78 14.3094 310.842 14.4328 310.842 14.5562L340.892 85.3622L341.631 86.8425L342.37 85.3622L372.419 14.5562C372.419 14.3094 372.419 14.0628 372.665 13.816V13.5693C374.39 10.3621 376.606 7.64825 380.055 5.92127C383.01 4.19429 386.459 2.96077 390.4 2.71406H391.139H392.124H394.094H394.341C405.424 3.45419 414.045 10.8555 413.553 19.4904Z" fill="white"/>
</svg>
